<svg xmlns="http://www.w3.org/2000/svg" xmlns:xlink="http://www.w3.org/1999/xlink" width="17" height="17" viewBox="0 0 17 17"><defs><path id="a" d="M1532 753.75v1.5c0 .41-.34.75-.75.75h-8.88a.75.75 0 0 1-.75-.75v-1.5c0-.41.34-.75.75-.75h8.88c.41 0 .75.34.75.75zm0 6v1.5c0 .41-.34.75-.75.75h-8.88a.75.75 0 0 1-.75-.75v-1.5c0-.41.34-.75.75-.75h8.88c.41 0 .75.34.75.75zm0 6v1.5c0 .41-.34.75-.75.75h-8.88a.75.75 0 0 1-.75-.75v-1.5c0-.41.34-.75.75-.75h8.88c.41 0 .75.34.75.75zm-12-12v1.5c0 .41-.34.75-.75.75h-1.5a.75.75 0 0 1-.75-.75v-1.5c0-.41.34-.75.75-.75h1.5c.41 0 .75.34.75.75zm0 6v1.5c0 .41-.34.75-.75.75h-1.5a.75.75 0 0 1-.75-.75v-1.5c0-.41.34-.75.75-.75h1.5c.41 0 .75.34.75.75zm0 6v1.5c0 .41-.34.75-.75.75h-1.5a.75.75 0 0 1-.75-.75v-1.5c0-.41.34-.75.75-.75h1.5c.41 0 .75.34.75.75z"/></defs><g transform="translate(-1516 -752)"><use xlink:href="#a"/><use fill="#8f8f8f" xlink:href="#a"/></g></svg>