<svg xmlns="http://www.w3.org/2000/svg" width="14.37" height="15" viewBox="0 0 14.37 15"><defs><style>.cls-1{fill-rule:evenodd;filter:url(#filter)}</style><filter id="filter" x="1517.63" y="753" width="14.37" height="15" filterUnits="userSpaceOnUse"><feFlood result="flood" flood-color="#fff"/><feComposite result="composite" operator="in" in2="SourceGraphic"/><feBlend result="blend" in2="SourceGraphic"/></filter></defs><path id="Forma_1_copy" data-name="Forma 1 copy" class="cls-1" d="M1531.25 753h-12.88a.754.754 0 0 0-.75.75v1.5a.754.754 0 0 0 .75.75h12.88a.754.754 0 0 0 .75-.75v-1.5a.754.754 0 0 0-.75-.75zm0 6h-12.88a.754.754 0 0 0-.75.75v1.5a.754.754 0 0 0 .75.75h12.88a.754.754 0 0 0 .75-.75v-1.5a.754.754 0 0 0-.75-.75zm0 6h-12.88a.754.754 0 0 0-.75.75v1.5a.754.754 0 0 0 .75.75h12.88a.754.754 0 0 0 .75-.75v-1.5a.754.754 0 0 0-.75-.75z" transform="translate(-1517.63 -753)"/></svg>